# xmcd
#
# Track frame offsets:
#	150
#	10767
#	22399
#	33996
#	43569
#	56249
#	67536
#	78749
#	89302
#	99353
#	112451
#	122616
#
# Disc length: 1786 seconds
#
# Revision: 3188045719
# Processed by: cddbd v1.5.2PL0 Copyright (c) Steve Scherf et al.
# Submitted via: EZCDAudioConverter 8.3.2.1
#
DISCID=9b06f80c
DTITLE=CONNIE SMITH - THE BEST OF CONNIE SMITH
DYEAR=1967
DGENRE=Country
TTITLE0=ONCE A DAY
TTITLE1=I CAN'T REMEMBER
TTITLE2=TINY BLUE TRANSISTOR RADIO
TTITLE3=I'LL COME RUNNING
TTITLE4=I SAW A MAN
TTITLE5=IF I TALK TO HIM
TTITLE6=THEN AND ONLY THEN
TTITLE7=AIN'T HAD NO LOVIN'
TTITLE8=DARLING, ARE YOU EVER COMING HOME
TTITLE9=THE HURTIN'S ALL OVER
TTITLE10=CINCINNATI, OHIO
TTITLE11=NOBODY BUT A FOOL (WOULD LOVE YOU)
EXTD=
EXTT0=
EXTT1=
EXTT2=
EXTT3=
EXTT4=
EXTT5=
EXTT6=
EXTT7=
EXTT8=
EXTT9=
EXTT10=
EXTT11=
PLAYORDER=
